<svg width="1300" height="1300" viewBox="0 0 1300 1300" fill="none" xmlns="http://www.w3.org/2000/svg">
<path d="M457.438 869.364H556.159V1059.7H559L688.261 869.364H772.068V1233H673.347V1041.95H671.216L539.824 1233H457.438V869.364Z" fill="black"/>
<path d="M791.693 232.79C791.693 273.273 783.821 307.423 768.078 335.24C752.335 362.939 731.087 383.95 704.335 398.273C677.583 412.477 647.754 419.58 614.847 419.58C581.703 419.58 551.755 412.418 525.003 398.095C498.369 383.654 477.181 362.584 461.438 334.885C445.812 307.068 438 273.036 438 232.79C438 192.307 445.812 158.216 461.438 130.517C477.181 102.7 498.369 81.6889 525.003 67.4844C551.755 53.1615 581.703 46 614.847 46C647.754 46 677.583 53.1615 704.335 67.4844C731.087 81.6889 752.335 102.7 768.078 130.517C783.821 158.216 791.693 192.307 791.693 232.79ZM690.131 232.79C690.131 211.009 687.231 192.662 681.43 177.747C675.749 162.714 667.285 151.35 656.04 143.656C644.913 135.844 631.182 131.938 614.847 131.938C598.511 131.938 584.721 135.844 573.476 143.656C562.349 151.35 553.885 162.714 548.085 177.747C542.403 192.662 539.562 211.009 539.562 232.79C539.562 254.57 542.403 272.977 548.085 288.01C553.885 302.925 562.349 314.288 573.476 322.101C584.721 329.795 598.511 333.642 614.847 333.642C631.182 333.642 644.913 329.795 656.04 322.101C667.285 314.288 675.749 302.925 681.43 288.01C687.231 272.977 690.131 254.57 690.131 232.79Z" fill="black"/>
<path d="M757.523 862.64C757.523 862.64 808.618 924.639 820.523 939.64C845.523 971.14 861.385 993.135 870.523 1026.64C881.023 1065.14 895.751 1108.76 870.523 1149.64C847.955 1186.2 818.118 1202 775.523 1207.64C741.523 1212.14 722.023 1208.64 681.023 1214.64C656.038 1218.3 633.108 1254.51 633.023 1254.64C632.969 1254.61 599.332 1235.53 598.023 1211.14C597.123 1194.39 608.934 1173.97 624.023 1166.64C659.023 1149.64 686.023 1165.14 733.023 1144.14C766.617 1129.13 781.636 1111.29 792.523 1076.14C810.022 1019.64 757.523 862.64 757.523 862.64ZM559.023 298.14C559.099 298.091 573.642 288.839 581.523 293.14C588.951 297.194 590.017 313.05 590.023 313.14L581.523 328.64C581.523 328.64 534.361 388.356 524.523 434.14C522.761 442.338 521.839 451.748 521.458 461.324C524.86 462.574 528.393 463.643 531.523 464.14C539.43 465.394 552.023 464.14 552.023 464.14L575.523 452.64C575.597 452.625 593.137 449.012 604.523 447.64C625.08 445.163 657.523 446.14 657.523 446.14C657.6 446.097 672.669 437.836 673.523 428.64C674.093 422.492 668.523 413.64 668.523 413.64C668.561 413.649 688.937 418.436 695.023 428.64C701.307 439.177 695.056 460.03 695.023 460.14L685.023 475.64C685.023 475.64 692.184 486.633 693.023 494.64C693.676 500.878 691.043 510.565 691.023 510.64C691.023 510.64 692.616 514.57 695.023 519.044C695.023 519.044 711.43 465.32 708.523 434.14C704.579 391.84 668.523 337.14 668.523 337.14C668.476 337.065 655.969 317.185 664.523 307.64C679.149 291.32 712.948 328.557 713.023 328.64C713.023 328.64 766.529 383.143 772.023 428.64C777.577 474.645 770.545 501.63 759.523 546.64C749.852 586.129 725.424 603.554 723.023 644.14C720.676 683.807 748.284 707.397 754.523 746.64C759.666 778.992 765.575 799.247 757.523 831C753.76 845.837 750.654 852.69 739.023 862.64C730.993 869.508 714.096 873.124 714.023 873.14C714.023 873.14 690.985 878.553 678 873.14C671.259 870.329 662.523 862.64 662.523 862.64C662.48 862.56 650.555 840.14 637.023 840.14C635.567 840.14 634.244 840.325 633.023 840.671C633.006 840.902 623.319 978.092 633.023 1065.14C636.363 1095.1 637.02 1130 637.023 1130.14C637.023 1130.14 627.126 1156.9 613.523 1157.64C599.944 1158.38 582.023 1136.64 582.023 1136.64C581.975 1136.51 567.896 1099.23 563.523 1069.14C555.827 1016.19 563.523 932.14 563.523 932.14L502.023 911.64C501.985 911.601 494.234 903.666 490 897C486.022 890.738 481.023 879.64 481.023 879.64C480.975 879.514 466.934 842.46 466.523 817.64C466.21 798.772 473.491 769.849 473.523 769.722C465.12 762.911 459.023 758.64 459.023 758.64L428.023 761.64C427.988 761.612 417.821 753.555 415.523 746.14C409.83 727.77 452.523 713.64 452.523 713.64C452.576 713.644 468.439 715.013 487.5 719.579L488.5 718C488.554 717.871 504.774 679.112 501.523 652.64C499.783 638.476 491.023 617.64 491.023 617.64C490.945 617.498 455.932 553.29 452.523 508.14C449.393 466.687 453.876 441.446 470.023 403.14C490.902 353.607 559.023 298.14 559.023 298.14ZM521.506 487.576L524.506 507.076L524.514 507.128L524.532 507.178L530.032 521.678L530.368 522.564L530.91 521.786L542.5 505.157V490.07L542.074 490.006L522.074 487.006L521.403 486.905L521.506 487.576Z" fill="white"/>
<path d="M623.5 774C623.714 762.761 632 746.5 632 746.5V743L648.5 737.5L671 741.5L695 759.5L710 774L732.5 759.5C741.287 753.837 730.303 741.95 736.5 734C739.933 729.596 748 725.5 748 725.5L751.5 736.5L755.5 755L761 795.5V819L753.5 843.5L745.5 853C745.5 853 711.374 850.058 698 835.5C690.142 826.947 693.764 816.005 684.5 809C670.44 798.369 654.259 822.136 639.5 812.5C625.867 803.599 623.19 790.279 623.5 774Z" fill="#912E2E"/>
<path d="M466.5 413L474.5 396.5C474.5 396.5 474.21 420.009 483 430.5C490.296 439.208 498.405 439.29 508.5 444.5C513.544 447.103 521.5 451 521.5 451V462L505.5 453.5L508.5 465L515 479.5L521.5 486.5V493.5C521.5 493.5 510.478 478.597 502.5 482C494.571 485.383 502.522 496.493 497.5 503.5C490.017 513.941 479.163 516.659 466.5 514.5C460.888 513.543 453 509 453 509L451.5 476L455 444.5L466.5 413Z" fill="#912E2E"/>
<path d="M505 780.5C501.759 787.175 505 799.5 505 799.5L524.5 828.5L540.5 869.5C540.5 869.5 546.876 865.21 550 861.5C556.882 853.33 558.921 846.174 558.5 835.5C557.941 821.343 544.939 817.455 540.5 804C536.486 791.832 546.816 778.37 536 771.5C525.359 764.741 510.506 769.16 505 780.5Z" fill="#912E2E"/>
<path d="M560 987L562.5 949.5C562.5 949.5 572.9 934.781 581.5 937C588.798 938.883 587.937 946.917 593 952.5C600.172 960.408 614.109 959.325 614 970C613.94 975.851 610.846 978.7 607.5 983.5C603.076 989.847 596.113 989.917 593 997C587.808 1008.82 606.135 1015.98 603 1028.5C599.675 1041.78 590.677 1052.5 577 1052C569.749 1051.73 560 1044.5 560 1044.5V987Z" fill="#912E2E"/>
<path d="M688.5 355C683.573 356.226 676.5 350 676.5 350L662.5 324L661.5 312.5L666 306.5L676.5 303L698 313.5L711.5 328C711.5 328 701.45 335.699 696.5 342C692.817 346.687 694.285 353.561 688.5 355Z" fill="#912E2E"/>
<path d="M675.5 1171C672.125 1151.88 626 1166.5 626 1166.5L640.5 1160.5L661.5 1158L686 1156C686 1156 695.527 1158.78 699 1163.5C706.369 1173.52 684.429 1180.83 687 1193C688.986 1202.4 702 1212.5 702 1212.5H686C686 1212.5 669.731 1204.33 667.5 1194.5C665.354 1185.05 677.186 1180.55 675.5 1171Z" fill="#912E2E"/>
<path d="M756 1145.5C753.305 1141.65 747 1137.5 747 1137.5L760.5 1128.5L768 1120.5C768 1120.5 763.932 1138.21 770.5 1145.5C775.186 1150.7 780.299 1150.48 787 1152.5C796.994 1155.52 806.924 1147.89 813.5 1156C818.812 1162.55 812.865 1169.49 815.5 1177.5C817.658 1184.06 824 1193 824 1193L815.5 1197.5L805 1202L791 1204C791 1204 793.681 1179.94 784 1171C776.921 1164.47 766.518 1171.02 760.5 1163.5C755.974 1157.84 760.152 1151.44 756 1145.5Z" fill="#912E2E"/>
<path d="M813.5 1058.5C805.847 1057.72 795.5 1066.5 795.5 1066.5V1042.5C795.5 1042.5 810.786 1045.08 820 1042.5C832.486 1039.01 833.818 1019.8 846.5 1022.5C853.72 1024.04 854.234 1035.3 861.5 1034C865.768 1033.24 870.5 1027.5 870.5 1027.5L876 1048.5C876 1048.5 871.393 1055.17 867.5 1058.5C855.402 1068.86 842.613 1071.54 827.5 1066.5C821.526 1064.51 819.765 1059.13 813.5 1058.5Z" fill="#912E2E"/>
<path d="M488.023 719.704C488.023 719.704 504.779 679.156 501.523 652.64C499.783 638.476 491.023 617.64 491.023 617.64C491.023 617.64 455.935 553.34 452.523 508.14C449.393 466.687 453.876 441.447 470.023 403.14C490.902 353.607 559.023 298.14 559.023 298.14C559.023 298.14 573.622 288.828 581.523 293.14C588.972 297.206 590.023 313.14 590.023 313.14L581.523 328.64C581.523 328.64 534.361 388.356 524.523 434.14C522.761 442.338 521.84 451.748 521.459 461.324M719.523 787.14C719.523 787.14 687.024 740.102 655.523 737.64C613.894 734.387 576.023 809.14 576.023 809.14C576.023 809.14 561.736 762.902 540.023 743.14C513.354 718.867 452.523 713.64 452.523 713.64C452.523 713.64 409.829 727.77 415.523 746.14C417.825 753.568 428.023 761.64 428.023 761.64L459.023 758.64C459.023 758.64 465.12 762.91 473.523 769.721M530.283 524.5C530.283 524.5 522.269 507.16 521.497 486.167M695.023 519.044C695.023 519.044 711.43 465.32 708.523 434.14C704.579 391.84 668.523 337.14 668.523 337.14C668.523 337.14 655.953 317.203 664.523 307.64C679.165 291.301 713.023 328.64 713.023 328.64C713.023 328.64 766.53 383.143 772.023 428.64C777.577 474.645 770.545 501.63 759.523 546.64C749.852 586.13 725.424 603.554 723.023 644.14C720.676 683.807 748.284 707.397 754.523 746.64C759.666 778.992 765.576 799.247 757.523 831C753.76 845.837 750.655 852.69 739.023 862.64C730.976 869.523 714.023 873.14 714.023 873.14C714.023 873.14 690.985 878.553 678 873.14C671.258 870.33 662.523 862.64 662.523 862.64C662.523 862.64 650.579 840.14 637.023 840.14C635.567 840.14 634.244 840.324 633.023 840.67M473.523 769.721C486.513 780.25 505.015 796.853 515.023 813.14C529.512 836.72 530.523 855.14 546.523 877.14C551.531 884.026 555.683 890.234 563.523 888.64C618.332 877.492 617.047 845.201 633.023 840.67M473.523 769.721C473.523 769.721 466.21 798.73 466.523 817.64C466.935 842.502 481.023 879.64 481.023 879.64C481.023 879.64 486.022 890.737 490 897C494.244 903.682 502.023 911.64 502.023 911.64L563.523 932.14C563.523 932.14 555.827 1016.19 563.523 1069.14C567.904 1099.28 582.023 1136.64 582.023 1136.64C582.023 1136.64 599.944 1158.38 613.523 1157.64C627.126 1156.9 637.023 1130.14 637.023 1130.14C637.023 1130.14 636.37 1095.16 633.023 1065.14C623.311 978.019 633.023 840.67 633.023 840.67M553.523 577.14V554.14C553.523 554.14 541.165 552.525 533.523 554.14C523.868 556.18 511.023 565.64 511.023 565.64C511.023 565.64 510.37 553.613 513.023 546.64C516.232 538.203 527.523 528.64 527.523 528.64L541.523 507.64V491.64C541.523 491.64 530.573 491.195 524.523 488.14C523.46 487.603 522.452 486.937 521.497 486.167M537.523 553.59C537.523 553.59 539.668 568.594 538.523 574.14C537.215 580.471 534.607 583.459 531.523 589.14C529.014 593.76 526.493 595.765 524.523 600.64C522.427 605.824 521.523 614.64 521.523 614.64C521.523 614.64 530.598 605.746 537.523 601.64C540.903 599.636 546.523 597.14 546.523 597.14C546.523 597.14 543.659 607.746 544.023 614.64C544.417 622.113 549.023 633.14 549.023 633.14L552.023 622.14C552.023 622.14 553.834 635.793 556.523 644.14C559.844 654.448 568.523 669.14 568.523 669.14V649.14C568.523 649.14 580.768 660.533 587.023 669.14C591.452 675.235 597.023 685.64 597.023 685.64L607.523 673.64C607.523 673.64 610.994 681.679 612.023 687.14C613.433 694.623 612.023 706.64 612.023 706.64C612.023 706.64 620.239 697.974 625.023 691.14C629.807 684.306 636.523 671.64 636.523 671.64L641.023 691.14L655.523 669.14L659.023 682.64L672.523 644.14L683.523 656.14V622.14L695.023 633.14C695.023 633.14 691.875 620.779 689.023 613.14C686.637 606.75 682.023 597.14 682.023 597.14L701.523 607.14C701.523 607.14 704.249 587.428 698.523 577.14C693.331 567.812 677.523 559.64 677.523 559.64M679.023 551.64C679.023 551.64 694.012 551.896 703.023 549.14C710.288 546.918 720.523 540.64 720.523 540.64C720.523 540.64 707.56 535.01 701.523 528.64C695.925 522.733 691.023 510.64 691.023 510.64C691.023 510.64 693.679 500.903 693.023 494.64C692.184 486.633 685.023 475.64 685.023 475.64L695.023 460.14C695.023 460.14 701.324 439.205 695.023 428.64C688.932 418.426 668.523 413.64 668.523 413.64C668.523 413.64 674.093 422.492 673.523 428.64C672.667 437.86 657.523 446.14 657.523 446.14C657.523 446.14 625.08 445.163 604.523 447.64C593.113 449.015 575.523 452.64 575.523 452.64L552.023 464.14C552.023 464.14 539.43 465.394 531.523 464.14C528.393 463.643 524.861 462.574 521.459 461.324M521.497 486.167C510.536 477.32 506.523 454.64 506.523 454.64C506.523 454.64 513.648 458.456 521.459 461.324M757.523 862.64C757.523 862.64 808.618 924.64 820.523 939.64C845.523 971.14 861.385 993.135 870.523 1026.64C881.023 1065.14 895.752 1108.76 870.523 1149.64C847.955 1186.2 818.118 1202 775.523 1207.64C741.523 1212.14 722.023 1208.64 681.023 1214.64C655.992 1218.3 633.023 1254.64 633.023 1254.64C633.023 1254.64 599.334 1235.55 598.023 1211.14C597.123 1194.39 608.934 1173.97 624.023 1166.64C659.023 1149.64 686.023 1165.14 733.023 1144.14C766.617 1129.13 781.636 1111.29 792.523 1076.14C810.023 1019.64 757.523 862.64 757.523 862.64Z" stroke="black" stroke-width="5"/>
<path d="M641.438 487.305C640.502 487.891 640.219 489.126 640.805 490.062C641.392 490.998 642.626 491.281 643.562 490.695L642.5 489L641.438 487.305ZM656 483.5L655.793 481.511L656 483.5ZM671.207 488.836C672.221 489.274 673.398 488.807 673.836 487.793C674.274 486.779 673.807 485.602 672.793 485.164L672 487L671.207 488.836ZM583.852 499.392C584.898 499.75 586.035 499.193 586.392 498.148C586.75 497.102 586.193 495.965 585.148 495.608L584.5 497.5L583.852 499.392ZM571.5 495.5L571.776 497.481L571.5 495.5ZM556.208 501.473C555.365 502.186 555.26 503.448 555.973 504.292C556.686 505.135 557.948 505.24 558.792 504.527L557.5 503L556.208 501.473ZM626 519.5L627.647 518.365L625.275 514.925L624.083 518.929L626 519.5ZM613.5 541L612.313 539.39L613.5 541ZM597.5 547L597.978 545.058L597.5 547ZM586 531.5L587.913 530.916L587.314 528.954L585.368 529.603L586 531.5ZM642.5 534.5L641.822 536.382V536.382L642.5 534.5ZM656 536L655.068 534.23V534.23L656 536ZM661 519.5L660.257 517.643L658.901 518.186L659.005 519.643L661 519.5ZM587.611 562.096C586.559 561.758 585.433 562.337 585.096 563.389C584.758 564.441 585.337 565.567 586.389 565.904L587 564L587.611 562.096ZM628.5 570L628.243 568.017L628.5 570ZM667.219 556.086C668.094 555.413 668.259 554.157 667.586 553.281C666.913 552.406 665.657 552.241 664.781 552.914L666 554.5L667.219 556.086ZM622.111 511.5L621.03 513.182V513.182L622.111 511.5ZM624.5 503.75L624.301 501.76V501.76L624.5 503.75ZM624.5 511.5H622.5L626.316 512.338L624.5 511.5ZM625.096 513.419L626.177 511.736L625.096 513.419ZM631.093 504.662L629.338 503.705L631.093 504.662ZM614.854 504.715L615.053 506.705L614.854 504.715ZM614.412 506.551L615.494 504.868L614.412 506.551ZM642.5 489C643.562 490.695 643.562 490.695 643.561 490.695C643.561 490.695 643.561 490.695 643.561 490.695C643.561 490.695 643.561 490.695 643.561 490.695C643.562 490.695 643.563 490.694 643.564 490.694C643.566 490.692 643.571 490.689 643.577 490.685C643.59 490.678 643.609 490.665 643.636 490.649C643.69 490.616 643.771 490.566 643.878 490.502C644.092 490.374 644.407 490.187 644.804 489.961C645.6 489.507 646.717 488.896 648.004 488.269C650.638 486.983 653.747 485.746 656.207 485.489L656 483.5L655.793 481.511C652.591 481.844 648.95 483.357 646.25 484.674C644.869 485.348 643.673 486.001 642.822 486.486C642.396 486.729 642.055 486.931 641.818 487.074C641.699 487.145 641.607 487.201 641.543 487.24C641.511 487.26 641.486 487.276 641.468 487.286C641.459 487.292 641.453 487.296 641.448 487.299C641.445 487.301 641.443 487.302 641.441 487.303C641.441 487.304 641.44 487.304 641.439 487.304C641.439 487.304 641.439 487.305 641.439 487.305C641.438 487.305 641.438 487.305 642.5 489ZM656 483.5L656.207 485.489C658.969 485.201 662.645 485.971 665.813 486.918C667.359 487.38 668.716 487.863 669.686 488.23C670.17 488.414 670.556 488.567 670.818 488.674C670.949 488.728 671.049 488.769 671.115 488.797C671.148 488.811 671.172 488.821 671.188 488.828C671.196 488.831 671.201 488.834 671.204 488.835C671.206 488.836 671.207 488.836 671.207 488.836C671.208 488.836 671.208 488.836 671.208 488.836C671.208 488.836 671.207 488.836 671.207 488.836C671.207 488.836 671.207 488.836 672 487C672.793 485.164 672.793 485.164 672.792 485.164C672.792 485.164 672.792 485.163 672.792 485.163C672.791 485.163 672.79 485.163 672.789 485.162C672.787 485.161 672.785 485.16 672.782 485.159C672.776 485.156 672.767 485.153 672.756 485.148C672.735 485.139 672.704 485.126 672.665 485.11C672.587 485.077 672.474 485.03 672.329 484.97C672.039 484.852 671.622 484.686 671.103 484.49C670.067 484.097 668.617 483.581 666.958 483.085C663.717 482.116 659.393 481.136 655.793 481.511L656 483.5ZM584.5 497.5C585.148 495.608 585.147 495.608 585.147 495.608C585.147 495.607 585.146 495.607 585.146 495.607C585.146 495.607 585.145 495.607 585.144 495.607C585.142 495.606 585.14 495.605 585.138 495.604C585.132 495.603 585.125 495.6 585.116 495.597C585.098 495.591 585.073 495.583 585.04 495.572C584.975 495.55 584.881 495.519 584.761 495.481C584.522 495.404 584.178 495.296 583.751 495.17C582.899 494.918 581.707 494.59 580.347 494.283C577.697 493.687 574.148 493.112 571.224 493.519L571.5 495.5L571.776 497.481C573.94 497.18 576.891 497.605 579.469 498.186C580.723 498.468 581.827 498.772 582.617 499.006C583.011 499.122 583.326 499.221 583.539 499.289C583.645 499.323 583.726 499.35 583.78 499.368C583.806 499.377 583.826 499.383 583.838 499.387C583.844 499.389 583.848 499.391 583.851 499.392C583.852 499.392 583.853 499.392 583.853 499.392C583.853 499.393 583.853 499.393 583.853 499.392C583.853 499.392 583.853 499.392 583.853 499.392C583.853 499.392 583.852 499.392 584.5 497.5ZM571.5 495.5L571.224 493.519C567.689 494.011 563.875 496.101 561.11 497.891C559.689 498.811 558.472 499.7 557.609 500.359C557.177 500.69 556.832 500.964 556.592 501.157C556.472 501.254 556.379 501.331 556.314 501.385C556.282 501.411 556.257 501.432 556.239 501.447C556.23 501.455 556.223 501.461 556.218 501.465C556.215 501.467 556.213 501.469 556.212 501.47C556.211 501.471 556.21 501.471 556.21 501.472C556.209 501.472 556.209 501.472 556.209 501.473C556.209 501.473 556.208 501.473 557.5 503C558.792 504.527 558.791 504.527 558.791 504.527C558.791 504.527 558.791 504.527 558.791 504.528C558.791 504.528 558.791 504.528 558.791 504.527C558.791 504.527 558.792 504.527 558.793 504.525C558.796 504.523 558.8 504.52 558.806 504.515C558.819 504.504 558.838 504.488 558.865 504.466C558.919 504.422 559 504.355 559.107 504.268C559.321 504.095 559.638 503.843 560.038 503.537C560.84 502.924 561.971 502.099 563.283 501.249C565.981 499.503 569.167 497.844 571.776 497.481L571.5 495.5ZM631.093 504.662L629.338 503.705L624.759 512.099L626.515 513.057L628.27 514.014L632.849 505.62L631.093 504.662ZM626 519.5C624.083 518.929 624.083 518.929 624.083 518.929C624.083 518.929 624.083 518.929 624.083 518.929C624.083 518.929 624.083 518.929 624.083 518.93C624.083 518.931 624.082 518.933 624.081 518.936C624.08 518.941 624.077 518.951 624.073 518.964C624.065 518.99 624.052 519.031 624.035 519.085C624.002 519.194 623.95 519.358 623.881 519.57C623.743 519.994 623.536 520.612 623.263 521.374C622.717 522.899 621.909 524.989 620.865 527.25C618.734 531.868 615.784 536.831 612.313 539.39L613.5 541L614.687 542.61C619.033 539.405 622.332 533.618 624.497 528.926C625.602 526.533 626.453 524.329 627.029 522.724C627.317 521.92 627.537 521.264 627.686 520.805C627.76 520.576 627.817 520.395 627.856 520.271C627.875 520.209 627.89 520.16 627.9 520.127C627.905 520.11 627.909 520.097 627.912 520.087C627.913 520.083 627.914 520.079 627.915 520.076C627.916 520.075 627.916 520.073 627.916 520.073C627.916 520.072 627.917 520.072 627.917 520.071C627.917 520.071 627.917 520.07 626 519.5ZM613.5 541L612.313 539.39C606.681 543.544 603.365 546.382 597.978 545.058L597.5 547L597.022 548.942C604.596 550.804 609.578 546.377 614.687 542.61L613.5 541ZM597.5 547L597.978 545.058C596.67 544.736 595.36 543.842 594.084 542.461C592.818 541.092 591.702 539.369 590.767 537.629C589.838 535.898 589.12 534.209 588.634 532.949C588.391 532.321 588.209 531.804 588.087 531.448C588.027 531.27 587.982 531.133 587.953 531.042C587.938 530.997 587.927 530.963 587.921 530.942C587.918 530.931 587.915 530.924 587.914 530.919C587.913 530.917 587.913 530.916 587.913 530.915C587.913 530.915 587.913 530.915 587.913 530.915C587.913 530.915 587.913 530.916 587.913 530.916C587.913 530.916 587.913 530.916 586 531.5C584.087 532.084 584.087 532.084 584.087 532.085C584.087 532.085 584.088 532.086 584.088 532.086C584.088 532.087 584.088 532.088 584.089 532.09C584.09 532.092 584.091 532.096 584.092 532.101C584.095 532.109 584.099 532.122 584.104 532.137C584.113 532.168 584.127 532.211 584.145 532.267C584.18 532.377 584.232 532.536 584.3 532.736C584.437 533.136 584.638 533.704 584.902 534.389C585.428 535.753 586.213 537.602 587.243 539.521C588.269 541.431 589.57 543.471 591.147 545.177C592.713 546.871 594.67 548.364 597.022 548.942L597.5 547ZM586 531.5L585.368 529.603L576.368 532.603L577 534.5L577.632 536.397L586.632 533.397L586 531.5ZM626 519.5C624.353 520.635 624.354 520.635 624.354 520.636C624.354 520.636 624.354 520.636 624.354 520.637C624.355 520.638 624.356 520.638 624.356 520.64C624.358 520.642 624.36 520.645 624.363 520.648C624.368 520.656 624.375 520.666 624.384 520.679C624.402 520.705 624.428 520.742 624.462 520.79C624.529 520.885 624.627 521.023 624.754 521.198C625.007 521.547 625.376 522.045 625.842 522.65C626.774 523.859 628.105 525.503 629.703 527.245C632.832 530.657 637.236 534.73 641.822 536.382L642.5 534.5L643.178 532.618C639.571 531.32 635.725 527.893 632.651 524.542C631.149 522.903 629.891 521.351 629.01 520.207C628.57 519.637 628.225 519.17 627.992 518.849C627.876 518.689 627.787 518.565 627.729 518.482C627.7 518.441 627.678 518.41 627.664 518.39C627.658 518.381 627.653 518.373 627.65 518.369C627.648 518.367 627.647 518.366 627.647 518.365C627.646 518.364 627.646 518.364 627.646 518.364C627.646 518.364 627.646 518.364 627.646 518.364C627.646 518.365 627.647 518.365 626 519.5ZM642.5 534.5L641.822 536.382C644.106 537.204 646.605 538.31 648.946 538.807C651.473 539.343 654.093 539.264 656.932 537.77L656 536L655.068 534.23C653.213 535.207 651.579 535.277 649.777 534.894C647.789 534.472 645.885 533.593 643.178 532.618L642.5 534.5ZM656 536L656.932 537.77C658.969 536.697 660.276 534.827 661.124 532.907C661.977 530.976 662.45 528.808 662.716 526.842C662.984 524.862 663.053 523.001 663.057 521.642C663.058 520.96 663.043 520.398 663.028 520.002C663.02 519.804 663.012 519.648 663.006 519.538C663.003 519.484 663 519.441 662.998 519.41C662.997 519.395 662.997 519.383 662.996 519.374C662.996 519.37 662.996 519.366 662.995 519.363C662.995 519.362 662.995 519.36 662.995 519.359C662.995 519.359 662.995 519.358 662.995 519.358C662.995 519.358 662.995 519.357 661 519.5C659.005 519.643 659.005 519.643 659.005 519.642C659.005 519.642 659.005 519.642 659.005 519.642C659.005 519.642 659.005 519.642 659.005 519.642C659.005 519.642 659.005 519.643 659.005 519.645C659.006 519.649 659.006 519.656 659.007 519.667C659.008 519.687 659.01 519.719 659.012 519.763C659.017 519.851 659.024 519.985 659.031 520.159C659.045 520.506 659.058 521.012 659.057 521.632C659.053 522.876 658.99 524.552 658.752 526.305C658.513 528.073 658.109 529.834 657.465 531.291C656.817 532.758 656.01 533.735 655.068 534.23L656 536ZM661 519.5L661.743 521.357L666.743 519.357L666 517.5L665.257 515.643L660.257 517.643L661 519.5ZM587 564C586.389 565.904 586.39 565.905 586.39 565.905C586.39 565.905 586.391 565.905 586.391 565.905C586.392 565.905 586.394 565.906 586.396 565.907C586.4 565.908 586.405 565.909 586.412 565.912C586.425 565.916 586.445 565.922 586.47 565.93C586.521 565.946 586.596 565.97 586.693 566C586.888 566.061 587.173 566.149 587.541 566.259C588.276 566.48 589.34 566.793 590.666 567.16C593.318 567.895 597.024 568.853 601.247 569.745C609.626 571.515 620.282 573.08 628.757 571.983L628.5 570L628.243 568.017C620.479 569.021 610.384 567.587 602.073 565.831C597.951 564.96 594.327 564.024 591.735 563.306C590.439 562.947 589.403 562.643 588.693 562.429C588.339 562.322 588.065 562.238 587.882 562.181C587.79 562.152 587.721 562.131 587.676 562.116C587.653 562.109 587.636 562.104 587.625 562.1C587.62 562.098 587.616 562.097 587.613 562.096C587.612 562.096 587.611 562.096 587.611 562.096C587.611 562.096 587.611 562.096 587.611 562.095C587.611 562.095 587.611 562.096 587 564ZM628.5 570L628.757 571.983C636.725 570.952 643.143 569.458 649.195 566.957C655.248 564.455 660.848 560.981 667.219 556.086L666 554.5L664.781 552.914C658.587 557.674 653.295 560.934 647.667 563.26C642.04 565.586 635.991 567.014 628.243 568.017L628.5 570ZM614.854 504.715L615.053 506.705L617.699 506.44L617.5 504.45L617.301 502.46L614.655 502.725L614.854 504.715ZM618.222 509L619.304 507.318L615.494 504.868L614.412 506.551L613.331 508.233L617.141 510.682L618.222 509ZM617.5 504.45L615.525 504.764L616.247 509.314L618.222 509L620.198 508.686L619.475 504.136L617.5 504.45ZM617.5 504.45L617.699 506.44L621.199 506.09L621 504.1L620.801 502.11L617.301 502.46L617.5 504.45ZM625.096 513.419L626.177 511.736L623.193 509.818L622.111 511.5L621.03 513.182L624.014 515.101L625.096 513.419ZM622.111 511.5L623.193 509.818L619.304 507.318L618.222 509L617.141 510.682L621.03 513.182L622.111 511.5ZM621 504.1L619.022 504.397L620.133 511.797L622.111 511.5L624.089 511.203L622.978 503.803L621 504.1ZM621 504.1L621.199 506.09L624.699 505.74L624.5 503.75L624.301 501.76L620.801 502.11L621 504.1ZM624.5 503.75H622.5V511.5H624.5H626.5V503.75H624.5ZM624.5 503.75L624.699 505.74L628.449 505.365L628.25 503.375L628.051 501.385L624.301 501.76L624.5 503.75ZM628.25 503.375L628.449 505.365L630.315 505.178L630.116 503.188L629.917 501.198L628.051 501.385L628.25 503.375ZM624.5 511.5L626.316 512.338L630.066 504.213L628.25 503.375L626.434 502.537L622.684 510.662L624.5 511.5ZM626.515 513.057L624.759 512.099C625.037 511.589 625.689 511.423 626.177 511.736L625.096 513.419L624.014 515.101C625.48 516.043 627.436 515.543 628.27 514.014L626.515 513.057ZM631.093 504.662L632.849 505.62C634.004 503.503 632.316 500.958 629.917 501.198L630.116 503.188L630.315 505.178C629.515 505.258 628.953 504.41 629.338 503.705L631.093 504.662ZM614.854 504.715L614.655 502.725C611.827 503.007 610.941 506.697 613.331 508.233L614.412 506.551L615.494 504.868C616.291 505.381 615.995 506.61 615.053 506.705L614.854 504.715Z" fill="black"/>
<path d="M663 310L671.5 321.5M669.5 305L679 314M577.5 292.5L568 304M586.5 304L577.5 314M417 740.5L431.5 733M420.5 754L437 748.5M599 1125.5L602.5 1153.5M616.5 1125.5L619.25 1139.5L622 1153.5" stroke="black" stroke-width="3" stroke-linecap="round"/>
</svg>
